<?xml version="1.0" encoding="UTF-8"?>
<svg version="1.1" xmlns="http://www.w3.org/2000/svg" width="424" height="507">
<path d="M0 0 C87.12 0 174.24 0 264 0 C264 29.37 264 58.74 264 89 C261.30250771 86.30250771 261.05277398 83.87580346 260.0625 80.1875 C252.80849437 55.40011582 236.14510624 31.06866159 213.61328125 17.87109375 C201.16050177 11.11548641 187.04170259 8.71309424 173.02075195 8.68115234 C171.96873439 8.67099909 170.91671682 8.66084583 169.83281994 8.6503849 C166.46797666 8.62004284 163.10321665 8.60267779 159.73828125 8.5859375 C157.64464615 8.56897841 155.55101784 8.5511591 153.45739746 8.5324707 C145.7425094 8.46958181 138.02749336 8.42327233 130.3125 8.375 C104.4178125 8.189375 104.4178125 8.189375 78 8 C78 64.43 78 120.86 78 179 C80.31 179.33 82.62 179.66 85 180 C86.69142684 180.41102939 88.3737535 180.86191999 90.04296875 181.35546875 C91.01210205 181.64123779 91.98123535 181.92700684 92.97973633 182.22143555 C94.03829834 182.54023682 95.09686035 182.85903809 96.1875 183.1875 C97.89619263 183.69567261 97.89619263 183.69567261 99.6394043 184.21411133 C107.38576768 186.5419949 115.09238948 188.9817741 122.7890625 191.46875 C123.73507828 191.77347733 124.68109406 192.07820465 125.65577698 192.39216614 C130.37065473 193.91137217 135.08202638 195.44000911 139.7878418 196.98706055 C149.04307559 199.99968494 158.29841894 202.69287431 167.7890625 204.8671875 C169.12334038 205.17386604 169.12334038 205.17386604 170.48457336 205.48674011 C190.78628452 209.951371 212.28735788 208.48086864 232 202 C233.12921875 201.62875 234.2584375 201.2575 235.421875 200.875 C243.36451894 198.04100498 251.67993679 194.40043648 257.6796875 188.2890625 C259 187 259 187 261 187 C255.17768778 203.06155095 239.6889258 216.25057924 225 224 C224.07445312 224.49113281 223.14890625 224.98226562 222.1953125 225.48828125 C211.26220727 230.85976339 199.96143074 232.55200488 187.875 232.4375 C186.69341309 232.42702637 185.51182617 232.41655273 184.29443359 232.40576172 C158.94515808 231.88533472 135.45997993 221.77755018 112.15753174 212.58886719 C88.5502114 203.28548972 63.61255274 194.80697084 38 194 C36.89398438 193.96003906 35.78796875 193.92007813 34.6484375 193.87890625 C-0.24875296 193.24373255 -37.19962544 202.13783565 -65.50390625 223.1875 C-67.62653389 224.72881334 -69.61789028 225.9238469 -72 227 C-63.51869739 206.48708206 -33.44620378 188.55911765 -14 180 C-2.17198987 175.34627311 9.70243081 171.89570467 22.4375 171.3125 C23.23865234 171.26544922 24.03980469 171.21839844 24.86523438 171.16992188 C30.73640422 170.86820211 30.73640422 170.86820211 33 172 C32.96273115 154.36179835 32.90272111 136.72383738 32.81609726 119.08581257 C32.77639312 110.89501456 32.74395704 102.70431142 32.72900391 94.51342773 C32.71594243 87.3690644 32.68886409 80.22491058 32.64538693 73.08066529 C32.62287243 69.30249278 32.60708324 65.52457771 32.60811615 61.74633217 C32.60886876 58.17978271 32.59068124 54.61380015 32.55883217 51.04739761 C32.54643982 49.13552534 32.55335015 47.22355733 32.56114197 45.31166077 C32.41623817 33.1196029 29.94759679 21.7590459 21 13 C14.64720345 7.54700228 7.9648101 4.43789815 0 2 C0 1.34 0 0.68 0 0 Z " fill="#000000" transform="translate(79,40)"/>
<path d="M0 0 C2.0905823 0.15131101 4.18096986 0.30531443 6.27127075 0.46046448 C7.43537539 0.5459382 8.59948002 0.63141191 9.79886055 0.71947575 C13.12064145 1.01057213 16.25735588 1.5321117 19.4921875 2.33984375 C20.54664063 2.59830078 21.60109375 2.85675781 22.6875 3.12304688 C23.739375 3.39181641 24.79125 3.66058594 25.875 3.9375 C27.48761719 4.33485352 27.48761719 4.33485352 29.1328125 4.74023438 C34.45853533 6.06182692 39.72070002 7.49162858 45 9 C45 64.11 45 119.22 45 176 C61.974375 175.896875 78.94875 175.79375 96.4375 175.6875 C101.76447021 175.66260498 107.09144043 175.63770996 112.57983398 175.61206055 C117.42415646 175.57542561 117.42415646 175.57542561 122.26844788 175.5349884 C124.39850111 175.51901313 126.52860121 175.50860817 128.65870667 175.50288391 C145.11599522 175.45287142 161.15659294 174.90460762 176.6875 168.8125 C177.48091797 168.50771729 178.27433594 168.20293457 179.09179688 167.88891602 C207.50705451 156.62544272 233.61791628 133.34674336 253.18359375 110.15234375 C254.65266698 108.41157096 256.14562132 106.70466743 257.66015625 105.00390625 C266.83868989 94.62029366 274.70649523 83.49801573 282.3515625 71.953125 C282.89941406 71.12586914 283.44726562 70.29861328 284.01171875 69.44628906 C285.06937038 67.84252554 286.12165835 66.23520901 287.16796875 64.62402344 C287.87759766 63.54169434 287.87759766 63.54169434 288.6015625 62.4375 C289.01744629 61.79683594 289.43333008 61.15617187 289.86181641 60.49609375 C291 59 291 59 293 58 C291.38902153 63.46449648 288.94786575 68.34365891 286.37890625 73.40234375 C285.91951157 74.31593155 285.46011688 75.22951935 284.98680115 76.17079163 C283.51584236 79.09496474 282.0396002 82.01642495 280.5625 84.9375 C274.77976147 96.39047241 269.03269798 107.85197817 263.52734375 119.44140625 C257.85543339 131.38073334 251.94339969 143.19401085 246 155 C243.97680155 159.01965018 241.95637247 163.0406757 239.9375 167.0625 C239.48439453 167.9604126 239.03128906 168.8583252 238.56445312 169.78344727 C237.92733398 171.05273071 237.92733398 171.05273071 237.27734375 172.34765625 C236.90859131 173.07992432 236.53983887 173.81219238 236.15991211 174.56665039 C234.68117544 177.66885381 233.35374929 180.84125166 232 184 C143.56 184 55.12 184 -36 184 C-33.02746307 182.01830871 -30.83565525 181.29162948 -27.4375 180.3125 C-16.77134969 176.79576203 -9.31856107 170.95067367 -4 161 C-0.81241477 152.13339573 -0.55589395 143.28187069 -0.56762695 133.95996094 C-0.55858848 132.49022103 -0.54825622 131.0204886 -0.53674316 129.55076599 C-0.50939147 125.5991028 -0.49991869 121.64758347 -0.49388909 117.69583797 C-0.48444798 113.55182742 -0.45824039 109.40792194 -0.43388367 105.26397705 C-0.39037174 97.43392737 -0.36173111 89.60389827 -0.33856028 81.77376485 C-0.3114261 72.85219264 -0.26751998 63.93072695 -0.22227156 55.00923109 C-0.12964477 36.67287713 -0.05786396 18.33649498 0 0 Z " fill="#000000" transform="translate(112,268)"/>
<path d="M0 0 C14.2003987 5.28418018 28.25499924 9.88097098 42.99981689 13.41903687 C45.79438273 14.12718991 48.5099097 15.01144727 51.22344971 15.98251343 C51.22344971 16.31251343 51.22344971 16.64251343 51.22344971 16.98251343 C16.27367645 18.49476323 -20.06737379 8.50790647 -53.85003662 0.50912476 C-54.53828522 0.34676331 -55.22653381 0.18440186 -55.93563843 0.01712036 C-57.7697899 -0.41711188 -59.60269412 -0.85660323 -61.43548584 -1.29653931 C-96.63633962 -8.89230995 -133.60320254 2.11778502 -165.68377686 16.15390015 C-167.69940282 16.95196764 -169.66333123 17.51005546 -171.77655029 17.98251343 C-171.77655029 17.32251343 -171.77655029 16.66251343 -171.77655029 15.98251343 C-162.9459044 8.83029509 -152.80322851 3.25750391 -142.77655029 -2.01748657 C-142.16585693 -2.33991333 -141.55516357 -2.66234009 -140.92596436 -2.99453735 C-94.55989729 -27.05905505 -46.65042148 -17.36376202 0 0 Z " fill="#000000" transform="translate(188.77655029296875,259.0174865722656)"/>
</svg>
